<svg width="176" height="50" viewBox="0 0 176 50" fill="none" xmlns="http://www.w3.org/2000/svg">
<path fill-rule="evenodd" clip-rule="evenodd" d="M63 25C63 38.807 74.1938 50 88.0005 50C101.807 50 113 38.807 113 25C113 11.193 101.807 0 88.0005 0C74.1938 0 63 11.193 63 25Z" fill="black"/>
<path d="M93.34 19.71C93.1027 19.71 92.8707 19.7804 92.6733 19.9122C92.476 20.0441 92.3222 20.2315 92.2313 20.4508C92.1405 20.6701 92.1168 20.9113 92.1631 21.1441C92.2094 21.3769 92.3236 21.5907 92.4915 21.7585C92.6593 21.9264 92.8731 22.0406 93.1059 22.0869C93.3387 22.1332 93.5799 22.1095 93.7992 22.0187C94.0185 21.9278 94.2059 21.774 94.3378 21.5767C94.4696 21.3793 94.54 21.1473 94.54 20.91C94.54 20.5917 94.4136 20.2865 94.1885 20.0615C93.9635 19.8364 93.6583 19.71 93.34 19.71ZM97.94 22.13C97.9206 21.3003 97.7652 20.4794 97.48 19.7C97.2257 19.0331 96.83 18.4293 96.32 17.93C95.8248 17.4174 95.2196 17.0242 94.55 16.78C93.7727 16.4862 92.9508 16.3272 92.12 16.31C91.06 16.25 90.72 16.25 88 16.25C85.28 16.25 84.94 16.25 83.88 16.31C83.0492 16.3272 82.2273 16.4862 81.45 16.78C80.7817 17.0266 80.1769 17.4196 79.68 17.93C79.1674 18.4252 78.7742 19.0304 78.53 19.7C78.2362 20.4773 78.0772 21.2992 78.06 22.13C78 23.19 78 23.53 78 26.25C78 28.97 78 29.31 78.06 30.37C78.0772 31.2008 78.2362 32.0227 78.53 32.8C78.7742 33.4696 79.1674 34.0748 79.68 34.57C80.1769 35.0804 80.7817 35.4734 81.45 35.72C82.2273 36.0138 83.0492 36.1728 83.88 36.19C84.94 36.25 85.28 36.25 88 36.25C90.72 36.25 91.06 36.25 92.12 36.19C92.9508 36.1728 93.7727 36.0138 94.55 35.72C95.2196 35.4758 95.8248 35.0826 96.32 34.57C96.8322 34.0726 97.2283 33.4682 97.48 32.8C97.7652 32.0206 97.9206 31.1997 97.94 30.37C97.94 29.31 98 28.97 98 26.25C98 23.53 98 23.19 97.94 22.13ZM96.14 30.25C96.1327 30.8848 96.0178 31.5137 95.8 32.11C95.6403 32.5452 95.3839 32.9384 95.05 33.26C94.7256 33.5905 94.3332 33.8464 93.9 34.01C93.3037 34.2278 92.6748 34.3427 92.04 34.35C91.04 34.4 90.67 34.41 88.04 34.41C85.41 34.41 85.04 34.41 84.04 34.35C83.3809 34.3623 82.7246 34.2609 82.1 34.05C81.6858 33.8781 81.3114 33.6228 81 33.3C80.6681 32.9787 80.4148 32.5852 80.26 32.15C80.0159 31.5452 79.8804 30.9019 79.86 30.25C79.86 29.25 79.8 28.88 79.8 26.25C79.8 23.62 79.8 23.25 79.86 22.25C79.8645 21.6011 79.983 20.9579 80.21 20.35C80.386 19.9279 80.6563 19.5517 81 19.25C81.3038 18.9062 81.6793 18.6331 82.1 18.45C82.7096 18.23 83.352 18.1151 84 18.11C85 18.11 85.37 18.05 88 18.05C90.63 18.05 91 18.05 92 18.11C92.6348 18.1173 93.2637 18.2322 93.86 18.45C94.3144 18.6187 94.7223 18.8928 95.05 19.25C95.3777 19.5572 95.6338 19.9327 95.8 20.35C96.0223 20.9589 96.1373 21.6018 96.14 22.25C96.19 23.25 96.2 23.62 96.2 26.25C96.2 28.88 96.19 29.25 96.14 30.25ZM88 21.12C86.9858 21.122 85.995 21.4245 85.1527 21.9894C84.3103 22.5543 83.6544 23.3562 83.2676 24.2938C82.8809 25.2313 82.7807 26.2625 82.9798 27.2569C83.1789 28.2514 83.6682 29.1645 84.3861 29.881C85.1039 30.5974 86.018 31.085 87.0129 31.2821C88.0077 31.4793 89.0387 31.3771 89.9755 30.9885C90.9123 30.6 91.7129 29.9424 92.2761 29.099C92.8394 28.2556 93.14 27.2642 93.14 26.25C93.1413 25.5751 93.0092 24.9066 92.7512 24.283C92.4933 23.6593 92.1146 23.0928 91.6369 22.6161C91.1592 22.1393 90.5919 21.7617 89.9678 21.5049C89.3436 21.2482 88.6749 21.1174 88 21.12ZM88 29.58C87.3414 29.58 86.6976 29.3847 86.15 29.0188C85.6023 28.6529 85.1755 28.1328 84.9235 27.5243C84.6714 26.9159 84.6055 26.2463 84.734 25.6003C84.8625 24.9544 85.1796 24.361 85.6453 23.8953C86.111 23.4296 86.7044 23.1125 87.3503 22.984C87.9963 22.8555 88.6659 22.9214 89.2743 23.1735C89.8828 23.4255 90.4029 23.8523 90.7688 24.4C91.1347 24.9476 91.33 25.5914 91.33 26.25C91.33 26.6873 91.2439 27.1203 91.0765 27.5243C90.9092 27.9284 90.6639 28.2954 90.3547 28.6047C90.0454 28.9139 89.6784 29.1592 89.2743 29.3265C88.8703 29.4939 88.4373 29.58 88 29.58Z" fill="white"/>
<path fill-rule="evenodd" clip-rule="evenodd" d="M126 25C126 38.807 137.194 50 151 50C164.807 50 176 38.807 176 25C176 11.193 164.807 0 151 0C137.194 0 126 11.193 126 25Z" fill="black"/>
<path d="M154.248 18.32H156.125V15.14C155.216 15.0454 154.303 14.9986 153.389 15C150.673 15 148.816 16.66 148.816 19.7V22.32H145.75V25.88H148.816V35H152.49V25.88H155.546L156.005 22.32H152.49V20.05C152.49 19 152.77 18.32 154.248 18.32Z" fill="white"/>
</svg>
